<svg width="43" height="32" viewBox="0 0 43 32" fill="none" xmlns="http://www.w3.org/2000/svg">
<path d="M5.76913 19.8629C5.35533 19.8629 5.14843 19.7453 5.14843 19.5101C5.14843 19.2659 5.24958 19.1166 5.45189 19.0624C5.66338 18.9991 5.93005 18.9674 6.2519 18.9674C6.57374 18.9674 6.97834 18.791 7.4657 18.4383C7.95307 18.0765 8.41284 17.5157 8.84503 16.7559L18.0865 0.746214C18.3716 0.248738 18.6704 0 18.9831 0C19.0567 0 19.121 0.00452251 19.1762 0.0135675C19.2406 0.0226125 19.2911 0.0497476 19.3279 0.0949727C19.3647 0.140198 19.3923 0.171855 19.4107 0.189945C19.4291 0.208035 19.4475 0.25326 19.4659 0.325621C19.4842 0.397981 19.4934 0.443206 19.4934 0.461296C19.4934 0.479386 19.5026 0.538178 19.521 0.637674V0.773349L20.7348 18.0312C20.7532 18.4564 20.8544 18.7232 21.0383 18.8317C21.2314 18.9403 21.6222 19.0081 22.2107 19.0352C22.7165 19.0352 22.9693 19.1619 22.9693 19.4151C22.9693 19.7317 22.7808 19.89 22.4038 19.89C22.3119 19.89 21.9716 19.8764 21.3831 19.8493C20.8038 19.8222 20.1739 19.8086 19.4934 19.8086C18.9325 19.8086 18.3302 19.8176 17.6865 19.8357C17.052 19.8538 16.6842 19.8629 16.5831 19.8629C16.1141 19.8629 15.8796 19.7498 15.8796 19.5237C15.8796 19.4151 15.9164 19.3156 15.9899 19.2252C16.0635 19.1166 16.3072 19.0578 16.721 19.0488C17.144 19.0398 17.5256 18.9584 17.8658 18.8046C18.2153 18.6418 18.39 18.3252 18.39 17.8549C18.39 17.8368 18.3716 17.5699 18.3348 17.0544C18.298 16.5388 18.252 15.9238 18.1969 15.2092C18.1417 14.4946 18.1049 13.9248 18.0865 13.4997H11.6451C11.4336 13.8705 11.2037 14.2685 10.9554 14.6936C10.7163 15.1187 10.5232 15.4489 10.3761 15.6841C10.2382 15.9102 10.0956 16.1544 9.94849 16.4167C9.80137 16.679 9.69102 16.878 9.61746 17.0137C9.55309 17.1494 9.48412 17.2941 9.41056 17.4478C9.33699 17.5926 9.29101 17.7147 9.27262 17.8142C9.25423 17.9046 9.24504 17.9951 9.24504 18.0855C9.24504 18.3478 9.3232 18.5468 9.47952 18.6825C9.64504 18.8182 9.81976 18.8996 10.0037 18.9267C10.1968 18.9538 10.3715 19.0036 10.5278 19.0759C10.6841 19.1393 10.7715 19.2342 10.7899 19.3609C10.8083 19.5056 10.7715 19.6322 10.6795 19.7407C10.5876 19.8402 10.4359 19.89 10.2244 19.89C10.1692 19.89 10.0313 19.8809 9.81056 19.8629C9.59906 19.8448 9.30481 19.8312 8.92779 19.8222C8.55078 19.8131 8.14617 19.8086 7.71398 19.8086C7.35536 19.8086 6.96455 19.8176 6.54156 19.8357C6.11856 19.8538 5.86109 19.8629 5.76913 19.8629ZM12.1554 12.6721H18.0314L17.4107 3.58183L12.1554 12.6721Z" fill="black"/>
<path d="M27.3502 22.7763C27.0956 22.6866 26.8252 22.5111 26.539 22.2496C26.2779 21.9872 26.1185 21.7582 26.0609 21.5625C25.917 21.0734 25.7563 20.4737 25.5789 19.7634C25.4015 19.0531 25.2222 18.2934 25.0411 17.4844C24.86 16.6753 24.6784 15.8539 24.4964 15.0202C24.3385 14.1609 24.1825 13.3509 24.0284 12.5903C23.8733 11.8051 23.7465 11.1053 23.6481 10.4909C23.5497 9.87662 23.481 9.3848 23.442 9.01548C23.4272 8.62057 23.5569 8.39342 23.831 8.33404C24.4807 8.23632 24.9537 8.45395 25.2501 8.98694C25.3922 9.42667 25.5492 9.92765 25.721 10.4899C25.8929 11.0521 26.0666 11.6637 26.2421 12.3246C26.836 12.0806 27.3649 11.7772 27.8287 11.4144C28.2925 11.0515 28.6675 10.6672 28.9538 10.2613C29.2643 9.82991 29.4744 9.40211 29.5841 8.97797C29.718 8.52822 29.7269 8.09538 29.6108 7.67942C29.4678 7.21501 29.1035 6.88221 28.518 6.68101C27.9326 6.47982 27.276 6.39242 26.5483 6.41883C25.5446 6.45525 24.6482 6.67315 23.8591 7.07252C23.0942 7.4463 22.3952 7.90418 21.7623 8.44618C21.4695 8.67925 21.1461 8.76513 20.792 8.70383C20.4119 8.61876 20.1522 8.39339 20.0128 8.02771C19.9999 7.68216 20.0515 7.3837 20.1677 7.13232C20.2839 6.88095 20.4387 6.65289 20.632 6.44815C21.3803 5.63009 22.2753 5.04151 23.3172 4.6824C24.3841 4.32238 25.5073 4.12097 26.6867 4.07817C27.6402 4.04357 28.5616 4.15843 29.451 4.42274C30.3654 4.68615 31.1507 5.18905 31.8067 5.93143C32.1263 6.41414 32.2963 6.92701 32.3167 7.47001C32.3621 8.01211 32.3068 8.5455 32.1506 9.0702C31.9943 9.5949 31.7619 10.0977 31.4533 10.5784C31.1698 11.0583 30.8714 11.477 30.5582 11.8344C31.1836 11.7622 31.8258 11.8007 32.4847 11.9498C33.1427 12.0742 33.73 12.3248 34.2467 12.7015C34.7875 13.0526 35.2326 13.5308 35.5819 14.136C35.9313 14.7412 36.1222 15.4758 36.1546 16.3396C36.1916 17.3269 35.9995 18.236 35.5784 19.0669C35.1824 19.8969 34.6312 20.6089 33.9248 21.203C33.2435 21.7962 32.4446 22.2701 31.5282 22.6246C30.6369 22.9783 29.7019 23.1729 28.7233 23.2084C28.2967 23.2239 27.9534 23.1127 27.6932 22.875C27.5677 22.8796 27.4534 22.8467 27.3502 22.7763ZM26.9081 15.0068C27.1449 15.9622 27.3706 16.955 27.5852 17.9852C27.7997 19.0155 28.0268 20.0453 28.2664 21.0747L28.4169 21.0692C28.969 21.0492 29.5675 20.9286 30.2125 20.7075C30.8826 20.4854 31.4993 20.1788 32.0625 19.7877C32.6249 19.3718 33.084 18.8855 33.4401 18.3289C33.7952 17.7475 33.9472 17.1118 33.8962 16.4216C33.7476 15.8091 33.4414 15.3506 32.9777 15.0461C32.514 14.7416 31.9541 14.5519 31.298 14.4768C30.667 14.4008 29.9644 14.4263 29.1902 14.5533C28.4402 14.6547 27.6795 14.8058 26.9081 15.0068Z" fill="#E20000"/>
<path d="M42.973 27.629C42.8915 27.3031 42.5791 26.8677 41.4385 26.5471C38.3787 25.6872 37.5058 25.512 35.5169 25.1128L35.4583 25.101C33.5515 24.7183 31.0117 24.2172 28.1474 23.7619C22.1694 22.8117 16.1635 22.0929 10.1149 21.7769C7.23218 21.6263 4.34416 21.5665 1.45778 21.4963C0.604765 21.4756 0.0621104 21.991 0.00505978 22.7411C-0.0479335 23.4378 0.313524 23.8345 1.17508 24.0281C6.64118 25.2562 12.1074 26.4837 17.5729 27.7145C18.2066 27.8572 19.0473 28.0797 19.6786 28.2327C18.3836 28.4985 16.0658 28.9085 15.5585 29.0557C15.1321 29.1795 14.1926 29.4906 13.8351 29.756C13.3973 30.1363 13.4612 30.5857 13.4975 30.7795C13.7319 31.3783 14.2335 31.4474 14.9468 31.4521C21.0725 30.3403 27.1119 30.2482 33.1549 31.3667C34.1081 31.5431 35.0478 31.7903 36.0005 31.9698C36.8513 32.13 37.5542 31.6404 37.7391 30.8096C37.906 30.0594 37.5271 29.4871 36.6736 29.2498C36.1056 29.0919 35.5295 28.96 34.9529 28.8354C29.3548 27.6257 18.608 25.2011 16.5921 24.8115C17.4071 24.884 18.2928 24.9628 19.7935 25.1612C23.316 25.6647 32.1286 25.9674 40.7156 28.7834C40.8929 28.8405 41.6607 29.2105 42.1975 29.0327C42.8015 28.8327 43.0944 28.1151 42.973 27.629Z" fill="#E20000"/>
</svg>
