<svg width="147" height="111" viewBox="0 0 147 111" fill="none" xmlns="http://www.w3.org/2000/svg">
<path d="M19.6058 68.625C18.1995 68.625 17.4964 68.2188 17.4964 67.4062C17.4964 66.5625 17.8402 66.0469 18.5277 65.8594C19.2464 65.6406 20.1527 65.5312 21.2464 65.5312C22.3402 65.5312 23.7152 64.9219 25.3714 63.7031C27.0277 62.4531 28.5902 60.5156 30.0589 57.8906L61.4652 2.57812C62.4339 0.859375 63.4495 0 64.512 0C64.762 0 64.9808 0.015625 65.1683 0.046875C65.387 0.078125 65.5589 0.171875 65.6839 0.328125C65.8089 0.484375 65.9027 0.59375 65.9652 0.65625C66.0277 0.71875 66.0902 0.875 66.1527 1.125C66.2152 1.375 66.2464 1.53125 66.2464 1.59375C66.2464 1.65625 66.2777 1.85938 66.3402 2.20312V2.67188L70.4652 62.2969C70.5277 63.7656 70.8714 64.6875 71.4964 65.0625C72.1527 65.4375 73.4808 65.6719 75.4808 65.7656C77.1995 65.7656 78.0589 66.2031 78.0589 67.0781C78.0589 68.1719 77.4183 68.7188 76.137 68.7188C75.8245 68.7188 74.6683 68.6719 72.6683 68.5781C70.6995 68.4844 68.5589 68.4375 66.2464 68.4375C64.3402 68.4375 62.2933 68.4688 60.1058 68.5312C57.9495 68.5938 56.6995 68.625 56.3558 68.625C54.762 68.625 53.9652 68.2344 53.9652 67.4531C53.9652 67.0781 54.0902 66.7344 54.3402 66.4219C54.5902 66.0469 55.4183 65.8438 56.8245 65.8125C58.262 65.7812 59.5589 65.5 60.7152 64.9688C61.9027 64.4062 62.4964 63.3125 62.4964 61.6875C62.4964 61.625 62.4339 60.7031 62.3089 58.9219C62.1839 57.1406 62.0277 55.0156 61.8402 52.5469C61.6527 50.0781 61.5277 48.1094 61.4652 46.6406H39.5745C38.8558 47.9219 38.0745 49.2969 37.2308 50.7656C36.4183 52.2344 35.762 53.375 35.262 54.1875C34.7933 54.9688 34.3089 55.8125 33.8089 56.7188C33.3089 57.625 32.9339 58.3125 32.6839 58.7812C32.4652 59.25 32.2308 59.75 31.9808 60.2812C31.7308 60.7812 31.5745 61.2031 31.512 61.5469C31.4495 61.8594 31.4183 62.1719 31.4183 62.4844C31.4183 63.3906 31.6839 64.0781 32.2152 64.5469C32.7777 65.0156 33.3714 65.2969 33.9964 65.3906C34.6527 65.4844 35.2464 65.6562 35.7777 65.9062C36.3089 66.125 36.6058 66.4531 36.6683 66.8906C36.7308 67.3906 36.6058 67.8281 36.2933 68.2031C35.9808 68.5469 35.4652 68.7188 34.7464 68.7188C34.5589 68.7188 34.0902 68.6875 33.3402 68.625C32.6214 68.5625 31.6214 68.5156 30.3402 68.4844C29.0589 68.4531 27.6839 68.4375 26.2152 68.4375C24.9964 68.4375 23.6683 68.4688 22.2308 68.5312C20.7933 68.5938 19.9183 68.625 19.6058 68.625ZM41.3089 43.7812H61.2777L59.1683 12.375L41.3089 43.7812Z" fill="black"/>
<path d="M92.947 78.6906C92.0816 78.381 91.1626 77.7745 90.19 76.871C89.3026 75.9645 88.7611 75.1732 88.5654 74.4973C88.0761 72.8075 87.53 70.7356 86.9271 68.2815C86.3242 65.8274 85.7151 63.2027 85.0996 60.4075C84.4841 57.6123 83.8671 54.7744 83.2485 51.894C82.712 48.9251 82.1818 46.1267 81.6579 43.4989C81.1308 40.7858 80.7001 38.368 80.3656 36.2456C80.0311 34.1232 79.7977 32.4239 79.6652 31.148C79.6149 29.7835 80.0556 28.9988 80.9873 28.7936C83.195 28.456 84.8025 29.2079 85.8097 31.0494C86.2927 32.5686 86.8263 34.2994 87.4103 36.2419C87.9943 38.1843 88.5846 40.2974 89.1812 42.5809C91.1995 41.7379 92.9967 40.6896 94.5729 39.436C96.1491 38.1824 97.4237 36.8545 98.3966 35.4523C99.4517 33.9617 100.166 32.4838 100.539 31.0183C100.994 29.4645 101.024 27.969 100.629 26.5319C100.143 24.9274 98.9052 23.7776 96.9156 23.0825C94.9259 22.3874 92.6946 22.0854 90.2216 22.1767C86.8106 22.3025 83.7643 23.0553 81.0827 24.4351C78.4832 25.7265 76.1079 27.3085 73.9568 29.1811C72.9618 29.9863 71.8627 30.283 70.6594 30.0712C69.3677 29.7773 68.485 28.9987 68.0115 27.7353C67.9674 26.5414 68.1429 25.5102 68.5378 24.6418C68.9327 23.7733 69.4587 22.9853 70.1157 22.278C72.6586 19.4516 75.7003 17.4181 79.241 16.1774C82.8669 14.9336 86.6839 14.2377 90.6918 14.0899C93.9323 13.9703 97.0637 14.3671 100.086 15.2803C103.194 16.1904 105.862 17.9278 108.092 20.4927C109.178 22.1605 109.756 23.9324 109.825 25.8085C109.979 27.6814 109.791 29.5242 109.26 31.337C108.729 33.1498 107.94 34.8868 106.891 36.5479C105.927 38.2059 104.913 39.6523 103.849 40.887C105.974 40.6378 108.157 40.7708 110.396 41.2859C112.632 41.7158 114.628 42.5815 116.384 43.8829C118.222 45.096 119.734 46.748 120.921 48.839C122.109 50.93 122.757 53.4678 122.867 56.4525C122.993 59.8635 122.341 63.0043 120.91 65.875C119.564 68.7426 117.69 71.2027 115.29 73.2552C112.974 75.3046 110.26 76.9419 107.145 78.1668C104.116 79.3887 100.939 80.0609 97.6132 80.1836C96.1635 80.2371 94.9965 79.8532 94.1123 79.0319C93.686 79.0476 93.2975 78.9339 92.947 78.6906ZM91.4443 51.8478C92.2492 55.1483 93.0162 58.5784 93.7453 62.1379C94.4743 65.6975 95.246 69.2555 96.0603 72.8119L96.572 72.793C98.4481 72.7238 100.482 72.3072 102.674 71.5432C104.951 70.776 107.047 69.7167 108.961 68.3652C110.872 66.9285 112.433 65.2485 113.643 63.3252C114.849 61.3167 115.366 59.1202 115.193 56.7356C114.688 54.6194 113.647 53.0354 112.071 51.9834C110.496 50.9315 108.593 50.2758 106.363 50.0165C104.218 49.7541 101.831 49.8422 99.1998 50.2808C96.651 50.631 94.0658 51.1533 91.4443 51.8478Z" fill="#E20000"/>
<path d="M146.039 95.4566C145.762 94.3305 144.701 92.8262 140.825 91.7188C130.426 88.7478 127.46 88.1424 120.7 86.7632L120.501 86.7226C114.021 85.4002 105.39 83.6691 95.656 82.0961C75.3403 78.8131 54.9299 76.3298 34.3743 75.238C24.5778 74.7177 14.7632 74.5109 4.9541 74.2686C2.05523 74.197 0.211076 75.9776 0.0171951 78.5691C-0.162897 80.9764 1.06548 82.3467 3.9934 83.0155C22.5693 87.2588 41.1458 91.4996 59.7197 95.7521C61.8732 96.2451 64.7302 97.0136 66.8755 97.5423C62.4748 98.4605 54.5979 99.8772 52.874 100.386C51.4247 100.813 48.2322 101.888 47.0172 102.805C45.5294 104.119 45.7464 105.672 45.8698 106.341C46.6663 108.41 48.371 108.649 50.7952 108.665C71.6126 104.824 92.137 104.506 112.673 108.37C115.913 108.98 119.106 109.834 122.344 110.454C125.235 111.007 127.624 109.316 128.252 106.445C128.82 103.854 127.532 101.876 124.631 101.056C122.701 100.511 120.743 100.055 118.784 99.6247C99.7591 95.4453 63.2375 87.0683 56.3866 85.7224C59.1562 85.9727 62.1663 86.2449 67.2663 86.9305C79.2371 88.6702 109.186 89.7159 138.368 99.4451C138.97 99.6423 141.58 100.921 143.404 100.306C145.456 99.6155 146.452 97.1361 146.039 95.4566Z" fill="#E20000"/>
</svg>
