<svg width="363" height="157" viewBox="0 0 363 157" fill="none" xmlns="http://www.w3.org/2000/svg">
<path d="M7.78125 74.9062C6.375 74.9062 5.67188 74.5 5.67188 73.6875C5.67188 72.8438 6.01562 72.3281 6.70312 72.1406C7.42188 71.9219 8.32812 71.8125 9.42188 71.8125C10.5156 71.8125 11.8906 71.2031 13.5469 69.9844C15.2031 68.7344 16.7656 66.7969 18.2344 64.1719L49.6406 8.85938C50.6094 7.14062 51.625 6.28125 52.6875 6.28125C52.9375 6.28125 53.1562 6.29687 53.3438 6.32812C53.5625 6.35938 53.7344 6.45313 53.8594 6.60938C53.9844 6.76562 54.0781 6.875 54.1406 6.9375C54.2031 7 54.2656 7.15625 54.3281 7.40625C54.3906 7.65625 54.4219 7.8125 54.4219 7.875C54.4219 7.9375 54.4531 8.14063 54.5156 8.48438V8.95312L58.6406 68.5781C58.7031 70.0469 59.0469 70.9688 59.6719 71.3438C60.3281 71.7188 61.6562 71.9531 63.6562 72.0469C65.375 72.0469 66.2344 72.4844 66.2344 73.3594C66.2344 74.4531 65.5938 75 64.3125 75C64 75 62.8438 74.9531 60.8438 74.8594C58.875 74.7656 56.7344 74.7188 54.4219 74.7188C52.5156 74.7188 50.4688 74.75 48.2812 74.8125C46.125 74.875 44.875 74.9062 44.5312 74.9062C42.9375 74.9062 42.1406 74.5156 42.1406 73.7344C42.1406 73.3594 42.2656 73.0156 42.5156 72.7031C42.7656 72.3281 43.5938 72.125 45 72.0938C46.4375 72.0625 47.7344 71.7812 48.8906 71.25C50.0781 70.6875 50.6719 69.5938 50.6719 67.9688C50.6719 67.9062 50.6094 66.9844 50.4844 65.2031C50.3594 63.4219 50.2031 61.2969 50.0156 58.8281C49.8281 56.3594 49.7031 54.3906 49.6406 52.9219H27.75C27.0312 54.2031 26.25 55.5781 25.4062 57.0469C24.5938 58.5156 23.9375 59.6562 23.4375 60.4688C22.9688 61.25 22.4844 62.0938 21.9844 63C21.4844 63.9062 21.1094 64.5938 20.8594 65.0625C20.6406 65.5312 20.4062 66.0312 20.1562 66.5625C19.9062 67.0625 19.75 67.4844 19.6875 67.8281C19.625 68.1406 19.5938 68.4531 19.5938 68.7656C19.5938 69.6719 19.8594 70.3594 20.3906 70.8281C20.9531 71.2969 21.5469 71.5781 22.1719 71.6719C22.8281 71.7656 23.4219 71.9375 23.9531 72.1875C24.4844 72.4062 24.7812 72.7344 24.8438 73.1719C24.9062 73.6719 24.7812 74.1094 24.4688 74.4844C24.1562 74.8281 23.6406 75 22.9219 75C22.7344 75 22.2656 74.9688 21.5156 74.9062C20.7969 74.8438 19.7969 74.7969 18.5156 74.7656C17.2344 74.7344 15.8594 74.7188 14.3906 74.7188C13.1719 74.7188 11.8438 74.75 10.4062 74.8125C8.96875 74.875 8.09375 74.9062 7.78125 74.9062ZM29.4844 50.0625H49.4531L47.3438 18.6562L29.4844 50.0625ZM80.8125 73.4531C80.8125 73.2031 80.9688 72.2812 81.2812 70.6875L88.6875 41.1094C88.6875 40.9219 88.7344 40.6562 88.8281 40.3125C88.9219 39.9375 88.9688 39.6562 88.9688 39.4688C88.9688 38.3125 87.8125 37.7188 85.5 37.6875C83.2188 37.6562 82.0781 37.2031 82.0781 36.3281C82.0781 35.4844 82.5625 34.9375 83.5312 34.6875C84.5312 34.4375 86.8906 34.2188 90.6094 34.0312C91.3906 33.6562 92.5156 33.4531 93.9844 33.4219C95.7656 33.4219 96.6562 33.9062 96.6562 34.875C96.6562 35.1875 96.3594 36.5 95.7656 38.8125C99.7344 34.6562 104 32.5781 108.562 32.5781C114.312 32.5781 117.641 35.3281 118.547 40.8281C118.547 40.9531 118.547 41.0469 118.547 41.1094C122.391 35.4219 127.188 32.5781 132.938 32.5781C136 32.5781 138.438 33.4531 140.25 35.2031C142.094 36.9531 143.016 39.4062 143.016 42.5625C143.016 45.625 141.75 50.8438 139.219 58.2188C136.688 65.5625 135.422 69.9062 135.422 71.25C135.422 72.9688 136.156 73.8281 137.625 73.8281C139.531 73.8281 141.188 72.7969 142.594 70.7344C144.031 68.6406 145.109 66.4531 145.828 64.1719C146.578 61.8594 147.047 60.6406 147.234 60.5156C147.547 60.3281 147.875 60.2344 148.219 60.2344C149.094 60.2344 149.531 60.6094 149.531 61.3594C149.531 61.8594 149.297 62.8281 148.828 64.2656C148.359 65.6719 147.672 67.2812 146.766 69.0938C145.859 70.9062 144.562 72.5312 142.875 73.9688C141.188 75.375 139.344 76.0781 137.344 76.0781C135.156 76.0781 133.391 75.3438 132.047 73.875C130.734 72.375 130.078 70.5156 130.078 68.2969C130.078 67.2031 131.25 63.1719 133.594 56.2031C135.969 49.2031 137.156 44.0469 137.156 40.7344C137.156 36.7656 135.594 34.7812 132.469 34.7812C130.625 34.7812 128.812 35.3125 127.031 36.375C125.281 37.4062 123.797 38.7188 122.578 40.3125C121.359 41.875 120.391 43.2812 119.672 44.5312C118.984 45.7812 118.453 46.8438 118.078 47.7188C117.828 48.5 115.844 56.3438 112.125 71.25L112.031 71.8125C111.906 72.1875 111.797 72.5312 111.703 72.8438C111.641 73.125 111.5 73.4844 111.281 73.9219C111.062 74.3281 110.828 74.6719 110.578 74.9531C110.328 75.2344 109.969 75.4844 109.5 75.7031C109.062 75.9531 108.594 76.0781 108.094 76.0781C107.312 76.0781 106.656 75.8125 106.125 75.2812C105.625 74.7812 105.375 74.1406 105.375 73.3594C105.375 72.5156 106.594 67.5156 109.031 58.3594C111.469 49.1719 112.688 43.3594 112.688 40.9219C112.688 36.8281 111.188 34.7812 108.188 34.7812C106.281 34.7812 104.406 35.3281 102.562 36.4219C100.75 37.5156 99.2344 38.8438 98.0156 40.4062C96.7969 41.9688 95.8438 43.3125 95.1562 44.4375C94.5 45.5625 94.0312 46.4688 93.75 47.1562C93.5625 47.5938 91.4219 56.0469 87.3281 72.5156C86.7656 74.9531 85.4844 76.1719 83.4844 76.1719C82.7031 76.1719 82.0625 75.8906 81.5625 75.3281C81.0625 74.7969 80.8125 74.1719 80.8125 73.4531ZM148.734 92.3906C148.734 91.3594 149.594 90.7969 151.312 90.7031C153.031 90.6094 154.188 90.2344 154.781 89.5781C155.094 89.1406 155.562 87.8594 156.188 85.7344L166.688 43.5C167.188 41.5938 167.438 40.2812 167.438 39.5625C167.438 38.5938 166.875 38.0312 165.75 37.875C164.625 37.7188 163.484 37.6094 162.328 37.5469C161.203 37.4844 160.641 37.0781 160.641 36.3281C160.641 35.4844 161.141 34.9375 162.141 34.6875C163.172 34.4375 165.484 34.2188 169.078 34.0312C169.641 33.7188 170.5 33.5469 171.656 33.5156H172.453C173.484 33.5156 174.203 33.6094 174.609 33.7969C175.016 33.9531 175.219 34.3125 175.219 34.875C175.219 35 175.031 35.8281 174.656 37.3594C178.188 34.1094 181.547 32.4844 184.734 32.4844C188.266 32.4844 191.094 33.8906 193.219 36.7031C195.375 39.5156 196.453 43.0938 196.453 47.4375C196.453 54.5312 194.109 61.0938 189.422 67.125C184.766 73.1562 179.734 76.1719 174.328 76.1719C171.016 76.1719 168.297 74.375 166.172 70.7812C165.922 71.9375 165.406 74 164.625 76.9688C163.875 79.9375 163.203 82.6094 162.609 84.9844C162.047 87.3594 161.766 88.7031 161.766 89.0156C161.766 90.1094 162.828 90.6719 164.953 90.7031C167.109 90.7344 168.328 90.9688 168.609 91.4062C168.734 91.6562 168.797 91.8438 168.797 91.9688C168.797 92.3438 168.594 92.7031 168.188 93.0469C167.812 93.4219 167.344 93.6094 166.781 93.6094C166.469 93.6094 165.406 93.5781 163.594 93.5156C161.812 93.4531 159.859 93.4219 157.734 93.4219C156.453 93.4219 155.062 93.4375 153.562 93.4688C152.062 93.5 151.156 93.5156 150.844 93.5156C150 93.5156 149.438 93.4375 149.156 93.2812C148.875 93.125 148.734 92.8281 148.734 92.3906ZM167.812 65.0156C167.812 65.8594 167.969 66.8906 168.281 68.1094C168.625 69.2969 169.328 70.5312 170.391 71.8125C171.484 73.0938 172.797 73.7344 174.328 73.7344C176.703 73.7344 178.906 72.4844 180.938 69.9844C183 67.4531 184.625 64.4219 185.812 60.8906C187 57.3594 187.922 54 188.578 50.8125C189.266 47.625 189.609 45.0938 189.609 43.2188C189.609 40.5938 189.141 38.5469 188.203 37.0781C187.297 35.6094 186.047 34.875 184.453 34.875C181.047 34.875 177.547 37.4688 173.953 42.6562C173.328 43.6875 172.781 45.0312 172.312 46.6875C172.188 46.9375 170.812 52.3125 168.188 62.8125C167.938 64.0938 167.812 64.8281 167.812 65.0156ZM203.625 73.4531C203.625 73.0781 203.969 71.4219 204.656 68.4844L217.453 17.4844C217.828 16.0156 218.016 14.9375 218.016 14.25C218.016 13.2188 217.453 12.6562 216.328 12.5625C215.203 12.4688 214.062 12.4063 212.906 12.375C211.75 12.3437 211.172 11.9062 211.172 11.0625C211.172 10.2812 211.641 9.76562 212.578 9.51562C213.516 9.26563 215.359 9.04688 218.109 8.85938C219.703 8.73437 221.016 8.64062 222.047 8.57812C222.953 8.45312 223.594 8.39062 223.969 8.39062C225 8.39062 225.516 8.79688 225.516 9.60938C225.516 9.98438 225.094 11.8594 224.25 15.2344C223.406 18.6094 222.344 22.7812 221.062 27.75C219.781 32.6875 218.859 36.4375 218.297 39C222.203 34.7188 226.453 32.5781 231.047 32.5781H231.141C233.828 32.5781 236.172 33.3438 238.172 34.875C240.203 36.4062 241.219 38.9688 241.219 42.5625C241.219 45.75 239.953 50.9688 237.422 58.2188C234.922 65.4375 233.672 69.75 233.672 71.1562C233.672 72.9375 234.406 73.8281 235.875 73.8281C239.469 73.8281 242.312 70.0938 244.406 62.625C244.656 61.5938 245 60.9219 245.438 60.6094C245.906 60.2969 246.391 60.2344 246.891 60.4219C247.422 60.6094 247.688 60.9844 247.688 61.5469C247.688 61.9219 247.438 62.8281 246.938 64.2656C246.469 65.6719 245.781 67.2812 244.875 69.0938C244 70.9062 242.703 72.5312 240.984 73.9688C239.297 75.375 237.469 76.0781 235.5 76.0781C233.375 76.0781 231.641 75.3594 230.297 73.9219C228.953 72.4531 228.281 70.6094 228.281 68.3906C228.281 67.1094 229.453 63.0625 231.797 56.25C234.172 49.4375 235.359 44.3594 235.359 41.0156C235.359 36.8594 233.859 34.7812 230.859 34.7812C228.797 34.7812 226.844 35.3438 225 36.4688C223.156 37.5938 221.625 39 220.406 40.6875C219.188 42.375 218.25 43.7812 217.594 44.9062C216.969 46.0312 216.5 46.9688 216.188 47.7188L210.328 71.0625C209.547 74.375 208.172 76.0469 206.203 76.0781C205.484 76.0781 204.875 75.8281 204.375 75.3281C203.875 74.8594 203.625 74.2344 203.625 73.4531ZM257.625 68.3906C257.625 66.5469 259.094 61.3281 262.031 52.7344C265 44.1406 266.484 39.5625 266.484 39C266.484 38.375 266.062 37.9844 265.219 37.8281C264.375 37.6406 263.406 37.5469 262.312 37.5469C261.25 37.5469 260.578 37.4531 260.297 37.2656C259.672 36.8281 259.609 36.1875 260.109 35.3438C260.359 35.0312 260.781 34.8125 261.375 34.6875C262 34.5625 262.969 34.4531 264.281 34.3594C265.594 34.2656 266.703 34.1562 267.609 34.0312C267.922 33.9688 268.188 33.9062 268.406 33.8438C268.656 33.75 268.844 33.6875 268.969 33.6562C269.094 33.625 269.375 33.5938 269.812 33.5625C270.281 33.5312 270.953 33.5156 271.828 33.5156H272.203C273.672 33.5156 274.406 33.9375 274.406 34.7812C274.406 34.9062 274.031 36.5938 273.281 39.8438C273.031 40.875 272.812 41.5938 272.625 42C272.469 42.375 272.359 42.5781 272.297 42.6094C272.234 42.6406 272.078 42.9219 271.828 43.4531C271.578 43.9531 271.266 44.7656 270.891 45.8906C269.672 49.5469 268.234 53.8438 266.578 58.7812C264.203 65.8125 263.016 69.9062 263.016 71.0625C263.016 72.9062 263.75 73.8281 265.219 73.8281C266 73.8281 266.797 73.625 267.609 73.2188C268.453 72.8125 269.484 71.6875 270.703 69.8438C271.922 67.9688 272.969 65.4688 273.844 62.3438C274.219 61 274.828 60.3281 275.672 60.3281C276.578 60.3281 277.031 60.7344 277.031 61.5469C277.031 61.9844 276.781 62.9219 276.281 64.3594C275.812 65.7656 275.125 67.375 274.219 69.1875C273.344 71 272.062 72.6094 270.375 74.0156C268.719 75.3906 266.906 76.0781 264.938 76.0781C262.75 76.0781 260.984 75.3594 259.641 73.9219C258.297 72.4844 257.625 70.6406 257.625 68.3906ZM268.781 16.6406C268.781 15.5469 269.219 14.5312 270.094 13.5938C271 12.625 272.062 12.1406 273.281 12.1406C274.188 12.1406 274.953 12.4219 275.578 12.9844C276.234 13.5469 276.562 14.3125 276.562 15.2812C276.562 16.4375 276.094 17.4844 275.156 18.4219C274.219 19.3281 273.172 19.7812 272.016 19.7812C271.047 19.7812 270.266 19.5 269.672 18.9375C269.078 18.375 268.781 17.6094 268.781 16.6406Z" fill="black"/>
<path d="M207.122 127.972C206.257 127.662 205.338 127.056 204.365 126.152C203.478 125.246 202.937 124.454 202.741 123.779C202.252 122.089 201.705 120.017 201.103 117.563C200.5 115.109 199.891 112.484 199.275 109.689C198.66 106.894 198.043 104.056 197.424 101.175C196.887 98.2063 196.357 95.4079 195.833 92.7801C195.306 90.0671 194.876 87.6493 194.541 85.5269C194.207 83.4044 193.973 81.7052 193.841 80.4292C193.79 79.0648 194.231 78.28 195.163 78.0749C197.37 77.7372 198.978 78.4892 199.985 80.3306C200.468 81.8498 201.002 83.5807 201.586 85.5231C202.17 87.4656 202.76 89.5786 203.357 91.8622C205.375 91.0192 207.172 89.9709 208.748 88.7172C210.325 87.4636 211.599 86.1357 212.572 84.7336C213.627 83.243 214.341 81.765 214.714 80.2996C215.169 78.7458 215.199 77.2503 214.805 75.8132C214.319 74.2087 213.081 73.0589 211.091 72.3638C209.101 71.6686 206.87 71.3667 204.397 71.4579C200.986 71.5838 197.94 72.3366 195.258 73.7164C192.659 75.0078 190.283 76.5897 188.132 78.4623C187.137 79.2675 186.038 79.5643 184.835 79.3525C183.543 79.0586 182.66 78.2799 182.187 77.0165C182.143 75.8227 182.318 74.7915 182.713 73.923C183.108 73.0545 183.634 72.2666 184.291 71.5592C186.834 68.7329 189.876 66.6994 193.416 65.4587C197.042 64.2148 200.859 63.519 204.867 63.3711C208.108 63.2516 211.239 63.6484 214.262 64.5616C217.369 65.4716 220.038 67.2091 222.267 69.774C223.353 71.4417 223.931 73.2136 224 75.0897C224.155 76.9626 223.967 78.8055 223.436 80.6183C222.905 82.4311 222.115 84.168 221.066 85.8292C220.103 87.4872 219.089 88.9335 218.024 90.1683C220.15 89.9191 222.332 90.052 224.571 90.5672C226.807 90.997 228.803 91.8627 230.559 93.1642C232.397 94.3773 233.91 96.0293 235.097 98.1203C236.284 100.211 236.933 102.749 237.043 105.734C237.169 109.145 236.516 112.286 235.085 115.156C233.739 118.024 231.866 120.484 229.465 122.536C227.15 124.586 224.435 126.223 221.321 127.448C218.292 128.67 215.114 129.342 211.789 129.465C210.339 129.518 209.172 129.134 208.288 128.313C207.861 128.329 207.473 128.215 207.122 127.972ZM205.62 101.129C206.425 104.43 207.192 107.86 207.921 111.419C208.65 114.979 209.421 118.537 210.236 122.093L210.747 122.074C212.624 122.005 214.658 121.588 216.85 120.824C219.127 120.057 221.222 118.998 223.137 117.646C225.048 116.21 226.608 114.53 227.818 112.606C229.025 110.598 229.541 108.401 229.368 106.017C228.863 103.901 227.823 102.317 226.247 101.265C224.671 100.213 222.768 99.5571 220.538 99.2978C218.394 99.0353 216.006 99.1234 213.375 99.562C210.826 99.9122 208.241 100.435 205.62 101.129ZM261.82 72.4136C261.681 73.2726 261.102 73.7637 260.081 73.8867C259.061 74.0097 258.21 74.0838 257.528 74.109C255.399 74.2729 253.19 74.5679 250.9 74.9939C248.695 75.4168 246.369 76.015 243.921 76.7884C242.911 77.1673 241.797 77.0803 240.582 76.5274C239.366 75.9745 238.597 74.8074 238.275 73.026C238.25 72.3438 238.485 71.7801 238.981 71.3349C239.477 70.8896 240.06 70.4838 240.729 70.1176C241.819 69.565 243.125 69.0899 244.647 68.6922C246.167 68.2092 247.691 67.8541 249.219 67.6269C250.833 67.3966 252.367 67.2973 253.819 67.3291C255.269 67.2756 256.468 67.3595 257.415 67.5807C258.795 67.9568 259.885 68.557 260.684 69.3814C261.568 70.2027 261.947 71.2134 261.82 72.4136ZM260.45 115.117C261.097 116.46 261.451 117.941 261.51 119.561C261.652 121.093 261.265 122.175 260.349 122.806C259.184 123.618 257.903 123.622 256.507 122.82C255.111 122.017 254.045 120.904 253.31 119.479C252.306 117.723 251.501 115.575 250.895 113.036C250.285 110.411 249.806 107.825 249.455 105.276C249.105 102.727 248.847 100.346 248.68 98.1315C248.598 95.9144 248.536 94.2515 248.496 93.1429C248.537 91.9459 248.837 90.8248 249.396 89.7794C249.955 88.7341 250.701 88.1089 251.633 87.9037C253.171 87.9324 254.434 88.6116 255.422 89.9414C256.407 91.1859 256.894 92.7904 256.881 94.7549C256.937 96.2899 257.043 97.9938 257.197 99.8667C257.352 101.74 257.592 103.609 257.917 105.476C258.242 107.343 258.608 109.165 259.015 110.943C259.419 112.636 259.897 114.027 260.45 115.117ZM299.244 93.1921C295.99 95.2761 292.466 96.9432 288.669 98.1933C284.869 99.3582 280.752 100.022 276.318 100.186C276.599 103.164 277.54 105.521 279.141 107.255C280.738 108.904 282.695 109.856 285.01 110.112C286.381 110.233 287.743 110.14 289.098 109.833C290.539 109.524 291.846 109.092 293.021 108.536C294.278 107.892 295.406 107.21 296.404 106.49C297.402 105.77 298.273 105.055 299.015 104.344C299.757 103.634 300.552 103.177 301.398 102.975C302.241 102.688 302.879 102.622 303.312 102.777C304.522 103.159 304.995 104.422 304.733 106.567C303.469 109.346 301.594 111.763 299.108 113.819C296.619 115.79 293.806 117.089 290.67 117.717C287.96 118.329 285.141 118.305 282.214 117.645C279.286 116.984 276.63 115.588 274.246 113.455C272.212 111.566 270.635 109.319 269.514 106.713C268.393 104.107 267.653 101.402 267.293 98.5976C266.94 95.9635 267.06 93.44 267.655 91.0272C268.334 88.6111 269.408 86.4794 270.877 84.632C272.343 82.6993 274.205 81.0936 276.463 79.8148C278.722 78.536 281.383 77.7547 284.446 77.4709C288.104 77.0798 291.454 77.6393 294.499 79.1494C297.543 80.6596 299.716 82.8423 301.017 85.6976C301.759 87.2927 301.981 88.6934 301.684 89.8999C301.472 91.1031 300.659 92.2005 299.244 93.1921ZM284.213 85.0366C283.366 85.2387 282.439 85.5717 281.432 86.0359C280.51 86.4968 279.635 87.0842 278.807 87.7978C278.062 88.4231 277.364 89.1746 276.713 90.0526C276.144 90.8421 275.836 91.75 275.789 92.7765C277.238 92.723 278.811 92.5369 280.507 92.2181C282.289 91.8963 283.983 91.5349 285.591 91.134C287.28 90.6447 288.798 90.1191 290.144 89.5571C291.574 88.9919 292.748 88.3936 293.664 87.7621C292.922 86.167 291.607 85.2335 289.718 84.9616C287.911 84.6013 286.076 84.6263 284.213 85.0366ZM317.034 80.3675C317.337 81.6372 317.646 83.0774 317.962 84.6882C318.36 86.2106 318.761 87.8182 319.165 89.5111C319.566 91.1188 319.925 92.7707 320.244 94.4667C320.563 96.1628 320.836 97.7752 321.063 99.3038C322.004 97.0489 323.027 94.6629 324.129 92.1459C325.232 89.6289 326.428 87.3219 327.716 85.225C329.088 83.0396 330.515 81.2364 332 79.8154C333.57 78.3912 335.293 77.6445 337.169 77.5753C339.983 77.4715 342.366 78.4083 344.317 80.3857C346.354 82.3599 348.069 84.8584 349.461 87.8811C350.936 90.8154 352.118 93.9313 353.008 97.2287C353.898 100.526 354.646 103.445 355.253 105.984C355.849 108.267 354.889 110.011 352.371 111.214C351.2 111.855 350.307 111.973 349.695 111.569C349.082 111.164 348.725 110.75 348.624 110.327C348.16 109.32 347.54 107.549 346.763 105.016C346.072 102.48 345.251 99.9058 344.301 97.2938C343.436 94.6785 342.455 92.4091 341.36 90.4856C340.264 88.562 339.08 87.7091 337.807 87.9268C336.275 88.0687 334.953 89.2703 333.841 91.5315C332.884 93.36 331.892 95.4033 330.865 97.6613C329.92 99.831 328.979 102.086 328.041 104.426C327.099 106.681 326.159 108.979 325.221 111.319C324.365 113.57 323.545 115.65 322.761 117.558C322.186 118.177 321.434 118.631 320.506 118.922C319.659 119.124 318.761 119.071 317.81 118.765C316.948 118.541 316.25 118.139 315.716 117.561C315.183 116.983 314.905 116.396 314.883 115.799C313.87 109.176 312.837 103.151 311.782 97.7249C310.814 92.2956 309.584 86.7478 308.094 81.0815C307.425 79.1422 307.241 77.612 307.541 76.4908C307.923 75.2812 309.185 74.765 311.326 74.9422C314.33 75.3438 316.232 77.1522 317.034 80.3675Z" fill="#E20000"/>
<path d="M135.295 109.075C122.762 105.552 116 103.5 97.4537 99.372C80.0571 95.5 73.6154 94.7981 64.3084 93.0534C65.9926 93.1362 68.8134 93.4135 70.7306 93.6301C84.2282 95.1558 91.5142 95.945 104.142 97.6434C119.746 100.135 131.943 102.602 145.673 105.49C149.731 106.343 153.68 107.706 157.718 108.676C158.359 108.83 159.906 108.784 159.952 107.847C160.166 106.202 159.724 106.411 158.685 105.682C157.617 105.446 157.636 105.282 157.084 105.128C152.119 103.739 147.165 102.307 142.183 100.981C122.408 95.7188 102.32 92.1878 81.9788 90.003C58.8934 87.5234 35.7591 87.6311 12.6031 88.4127C10.6939 88.4771 9.3319 89.1235 9.19621 91.1692C9.06693 93.1182 10.0769 94.2519 12.0584 94.4935C16.9654 95.0918 21.8578 95.8411 26.7775 96.299C55.5852 98.9801 84.0393 103.743 112.046 111.001C122.992 113.838 133.798 117.218 144.667 120.35C152 122.463 160.993 125.847 164.104 126.895C160.5 126.5 153.5 125.149 145.673 124C135.295 122.477 131.5 121.781 124.5 121C117.927 120.266 109.175 119.319 99.3392 118.629C78.8104 117.189 58.2594 116.553 37.6889 117.316C27.8854 117.68 18.092 118.358 8.30091 119C5.40737 119.189 3.73102 121.129 3.77125 123.727C3.80862 126.141 5.15539 127.395 8.13164 127.798C27.0142 130.351 45.897 132.902 64.7783 135.465C66.9675 135.762 69.882 136.27 72.0663 136.604C67.7661 137.915 60.0487 140.035 58.3776 140.696C56.9728 141.253 53.8899 142.611 52.7625 143.633C51.399 145.076 51.7549 146.603 51.9381 147.258C52.9176 149.247 54.6369 149.332 57.0527 149.129C77.4397 143.43 97.8521 141.265 118.653 143.264C121.934 143.58 125.191 144.143 128.472 144.469C131.401 144.76 133.628 142.86 133.995 139.945C134.327 137.313 132.867 135.459 129.904 134.904C127.933 134.534 125.942 134.257 123.951 134.004C104.628 131.555 67.5 126.5 60.5557 125.776L60.5558 125.776C63.3367 125.776 66.3591 125.776 71.5 126C83.5789 126.655 102.796 127.729 111.943 128.579C138 131 163.906 135.508 187.564 141.153C196.266 143.23 204.884 145.66 213.54 147.928C214.158 148.07 216.872 149.109 218.633 148.333C220.615 147.46 221.384 144.901 220.821 143.265C220.444 142.169 219.014 140.951 217.101 140.064C211.521 137.476 207.185 135.205 201.537 132.77C179.96 123.465 157.914 115.432 135.295 109.075Z" fill="#E20000"/>
</svg>
